# xmcd CD database file
#
# Track frame offsets:
#	150
#	13575
#	25945
#	38940
#	48780
#	57960
#	68815
#	79787
#	90382
#	98442
#	109757
#	122837
#
# Disc length: 1805 seconds
#
# Revision: 0
# Processed by: cddbd v1.5.1PL0 Copyright (c) Steve Scherf et al.
# Submitted via: CDex 1.60beta1
#
DISCID=8b070b0c
DTITLE=Etta James - Classic Masters
DYEAR=2003
DGENRE=Blues
TTITLE0=The Wallflower (Dance With Me Henry)
TTITLE1=W-O-M-A-N
TTITLE2=Market Place
TTITLE3=Tough Lover
TTITLE4=Be My Lovey Dovey
TTITLE5=Good Rockin' Daddy
TTITLE6=Nobody Loves You (Like Me)
TTITLE7=Baby, Baby Every Night
TTITLE8=We're in Love
TTITLE9=Strange Things Happening
TTITLE10=Hey, Henry
TTITLE11=How Big a Fool
EXTD=YEAR: 2003
EXTT0=
EXTT1=
EXTT2=
EXTT3=
EXTT4=
EXTT5=
EXTT6=
EXTT7=
EXTT8=
EXTT9=
EXTT10=
EXTT11=
PLAYORDER=
